<svg viewBox="0 0 235.26 199.37" xmlns="http://www.w3.org/2000/svg" xmlns:xlink="http://www.w3.org/1999/xlink"><linearGradient id="a" gradientUnits="userSpaceOnUse" x1="15.1" x2="130.43" y1="99.91" y2="99.91"><stop offset="0" stop-color="#fff" stop-opacity=".05"/><stop offset=".17" stop-color="#070707"/><stop offset=".81" stop-color="#070707"/><stop offset="1" stop-color="#fff" stop-opacity=".05"/></linearGradient><linearGradient id="b"><stop offset="0" stop-color="#fff" stop-opacity=".05"/><stop offset=".19" stop-color="#070707"/><stop offset=".81" stop-color="#070707"/><stop offset="1" stop-color="#fff" stop-opacity=".05"/></linearGradient><linearGradient id="c" gradientUnits="userSpaceOnUse" x1="136.41" x2="71.68" xlink:href="#b" y1="118.48" y2="118.48"/><linearGradient id="d" gradientUnits="userSpaceOnUse" x1="71.68" x2="220.16" xlink:href="#b" y1="100.08" y2="100.08"/><path d="m75.17 139.84c-4.18 7.95-4.77 15.4-.86 21.74.14.23.3.45.45.67.13.19.25.39.39.58s0 .01.02.02c.75.95 1.52 1.83 2.31 2.64 1.59 1.63 3.27 3.01 5.05 4.15.89.57 1.79 1.08 2.72 1.53.53.26 1.07.49 1.62.72.17.07.34.13.51.2.39.15.77.29 1.17.42.19.06.39.13.59.19.39.12.79.23 1.19.34.18.05.36.1.54.14.57.14 1.15.26 1.73.36 1.03.18 2.09.31 3.16.4.53.04 1.07.07 1.61.09 15.76-.1 26.43-6.72 33.08-18.5l-31.35-61.67-23.92 45.98z" fill="#c0b7a2"/><path d="m132.97 96.42c-3.75-13.44-10.46-24.56-17.8-33.48l-16.08 30.91 31.35 61.67s0-.01.01-.03c5.1-10.52 9.09-35.57 2.52-59.08z" fill="#dbccab"/><path d="m48.13 25.82h-16.56c-14.83 0-19.64 12.43-14.45 23.1l6.02 12.37 49.77 97.9c.43.84.9 1.63 1.4 2.4-3.92-6.35-3.33-13.79.86-21.74l23.92-45.98-27.17-53.44c-4.55-8.95-13.75-14.59-23.79-14.59z" fill="#d2d1d0"/><path d="m48.13 27.63c9.41 0 17.91 5.21 22.17 13.6l58.07 114.22c-6.63 11.17-16.77 16.65-30.99 16.74-8.62-.27-15.42-3.68-20.76-10.44h-.01s-.04-.07-.04-.07c-.04-.06-.08-.11-.11-.17-.06-.09-.12-.19-.18-.27l-.14-.2c-.1-.14-.2-.29-.31-.46-.54-.84-.96-1.55-1.31-2.24l-49.75-97.86-6.02-12.37c-2.47-5.08-2.46-10.51.05-14.51 2.41-3.85 6.95-5.98 12.77-5.98h16.56m0-1.8h-16.56c-14.82 0-19.63 12.43-14.45 23.09l6.02 12.37 49.76 97.89c.43.84.9 1.63 1.4 2.4.15.24.31.47.47.7.13.18.24.37.37.55s0 .01.02.02c5.97 7.57 13.51 10.91 22.2 11.17 15.76-.1 26.43-6.72 33.07-18.5l-58.51-115.1c-4.55-8.95-13.74-14.59-23.79-14.59z" fill="url(#a)"/><path d="m115.49 66.24c7.42 9.51 12.7 19.81 15.73 30.66 6.45 23.09 2.49 47.64-2.39 57.78-6.61 11.7-16.9 17.43-31.45 17.53-.52-.02-1.02-.04-1.5-.08-1.01-.08-2.01-.2-2.97-.37-2.44-.43-4.75-1.17-6.88-2.21-3.54-1.73-6.72-4.35-9.42-7.77-.07-.11-.14-.21-.21-.32l-.15-.23-.13-.19c-.1-.14-.19-.28-.28-.42-3.43-5.56-3.12-12.27.92-19.96l38.72-74.43m-.31-3.29-40 76.9c-4.18 7.95-4.77 15.4-.86 21.74.14.23.3.45.45.67.13.2.26.4.4.59v.01c2.99 3.79 6.37 6.51 10.08 8.33 2.32 1.13 4.78 1.91 7.36 2.37 1.03.18 2.08.31 3.15.39.53.04 1.07.07 1.61.09 15.76-.1 26.43-6.72 33.08-18.5 0 0 0-.01.01-.03 5.1-10.52 9.09-35.57 2.52-59.08-3.75-13.44-10.46-24.56-17.8-33.48z" fill="url(#c)"/><path d="m164.28 28.73c-3.79-1.2-7.09-1.84-9.52-2.19-11.69-1.59-20.8 1.35-26.24 10.74l-13.35 25.66c7.35 8.92 14.05 20.04 17.8 33.48 6.57 23.51 2.58 48.56-2.52 59.08 0 .01-.01.02-.01.03-6.64 11.78-17.31 18.4-33.08 18.5h46.79c19.46 0 38.42-7 52.64-20.29 12.42-11.6 20.75-27.06 22.86-44.03 5.11-41.11-28.6-72.48-55.38-80.98z" fill="#32171e"/><path d="m196.79 153.73c-14.22 13.28-33.18 20.28-52.64 20.28h-46.79c-8.68-.26-16.23-3.6-22.2-11.17-4.84-6.61-4.47-14.53 0-23.02l53.35-102.55c5.44-9.39 14.55-12.33 26.24-10.74 2.43.36 5.73.99 9.52 2.19 26.77 8.49 60.48 39.86 55.37 80.97-2.11 16.97-10.44 32.43-22.86 44.03z" fill="none"/><path d="m149.04 27.96c1.72 0 3.56.13 5.45.39 3.13.46 6.24 1.18 9.23 2.13 14.09 4.47 28.58 14.81 38.77 27.65 8.57 10.81 18.19 28.5 15.35 51.36-2 16.12-9.92 31.37-22.29 42.93-13.67 12.77-31.92 19.8-51.4 19.8h-46.76c-8.63-.27-15.43-3.69-20.78-10.45-4.21-5.78-4.16-12.87.16-21.08l53.33-102.51c3.99-6.87 10.19-10.21 18.93-10.21m.01-1.83c-8.95 0-16 3.35-20.52 11.15l-53.35 102.55c-4.47 8.49-4.84 16.4 0 23.02 5.97 7.57 13.51 10.91 22.2 11.17h46.79c19.45 0 38.42-7 52.64-20.28 12.42-11.6 20.75-27.06 22.86-44.03 5.11-41.11-28.6-72.47-55.37-80.97-3.79-1.2-7.09-1.84-9.52-2.19-1.98-.27-3.89-.41-5.72-.41z" fill="url(#d)"/></svg>