<?xml version="1.0" encoding="UTF-8"?>
<svg id="Layer_11" data-name="Layer 11" xmlns="http://www.w3.org/2000/svg" xmlns:xlink="http://www.w3.org/1999/xlink" viewBox="0 0 235.26 184.21">
  <defs>
    <linearGradient id="linear-gradient" x1="73.33" y1="96.25" x2="216.46" y2="96.25" gradientUnits="userSpaceOnUse">
      <stop offset="0" stop-color="#fff" stop-opacity=".05"/>
      <stop offset=".19" stop-color="#070707"/>
      <stop offset=".81" stop-color="#070707"/>
      <stop offset="1" stop-color="#fff" stop-opacity=".05"/>
    </linearGradient>
    <linearGradient id="linear-gradient-2" x1="18.8" y1="96.1" x2="129.97" y2="96.1" gradientUnits="userSpaceOnUse">
      <stop offset="0" stop-color="#fff" stop-opacity=".05"/>
      <stop offset=".17" stop-color="#070707"/>
      <stop offset=".81" stop-color="#070707"/>
      <stop offset="1" stop-color="#fff" stop-opacity=".05"/>
    </linearGradient>
    <linearGradient id="linear-gradient-3" x1="135.72" y1="113.99" x2="73.33" y2="113.99" gradientUnits="userSpaceOnUse">
      <stop offset="0" stop-color="#fff" stop-opacity=".05"/>
      <stop offset=".19" stop-color="#070707"/>
      <stop offset=".81" stop-color="#070707"/>
      <stop offset="1" stop-color="#fff" stop-opacity=".05"/>
    </linearGradient>
  </defs>
  <g>
    <path d="M193.93,147.97c-13.7,12.8-31.99,19.55-50.74,19.55h-45.1c-8.37-.25-15.64-3.47-21.4-10.77-4.66-6.37-4.31-14,0-22.19l51.42-98.85c5.25-9.05,14.03-11.89,25.29-10.35,2.34.35,5.52.96,9.17,2.12,25.81,8.19,58.3,38.42,53.38,78.05-2.03,16.36-10.06,31.26-22.03,42.44Z" fill="#1c0104" opacity=".75" stroke-width="0"/>
    <path d="M147.9,26.73c1.65,0,3.43.13,5.26.38,3.02.45,6.01,1.14,8.9,2.05,13.58,4.31,27.55,14.27,37.37,26.65,8.26,10.42,17.54,27.47,14.8,49.51-1.93,15.54-9.56,30.24-21.49,41.38-13.17,12.3-30.77,19.08-49.54,19.08h-45.07c-8.32-.26-14.87-3.55-20.03-10.08-4.06-5.57-4.01-12.41.16-20.32l51.4-98.81c3.85-6.62,9.82-9.84,18.25-9.84M147.9,24.98c-8.63,0-15.43,3.23-19.78,10.75l-51.42,98.85c-4.31,8.18-4.66,15.81,0,22.19,5.76,7.3,13.03,10.52,21.4,10.77h45.1c18.75,0,37.03-6.75,50.74-19.55,11.97-11.18,20-26.08,22.03-42.44,4.92-39.63-27.57-69.86-53.38-78.05-3.65-1.16-6.83-1.77-9.17-2.11-1.91-.26-3.75-.4-5.51-.4h0Z" fill="url(#linear-gradient)" stroke-width="0"/>
  </g>
  <g>
    <path d="M73.57,38.75l56.4,110.95c-6.4,11.36-16.69,17.74-31.88,17.83-8.37-.25-15.64-3.47-21.4-10.77,0,0,0-.01-.01-.02h0c-.13-.17-.24-.36-.36-.53-.15-.23-.31-.45-.45-.68-.48-.74-.94-1.51-1.35-2.31L26.55,58.86l-5.8-11.92c-5-10.28-.37-22.26,13.92-22.26h15.96c9.68,0,18.54,5.44,22.93,14.07Z" fill="#28231c" opacity=".2" stroke-width="0"/>
    <path d="M50.64,26.43c9.07,0,17.26,5.02,21.37,13.11l55.97,110.1c-6.39,10.76-16.17,16.04-29.87,16.14-8.31-.26-14.86-3.55-20.01-10.06l-.07-.1s-.06-.09-.09-.14c-.06-.09-.12-.18-.17-.25l-.14-.2c-.09-.14-.19-.27-.3-.44-.52-.81-.92-1.49-1.26-2.16L28.12,58.1l-5.8-11.92c-2.39-4.9-2.37-10.13.04-13.99,2.32-3.71,6.69-5.76,12.31-5.76h15.96M50.64,24.68h-15.96c-14.29,0-18.93,11.98-13.92,22.26l5.8,11.92,47.97,94.35c.41.81.87,1.57,1.35,2.31.14.23.3.45.45.68.12.18.23.36.36.53h0s0,.01.01.02c5.76,7.3,13.03,10.52,21.4,10.77,15.19-.09,25.48-6.48,31.88-17.83l-56.4-110.95c-4.39-8.63-13.25-14.07-22.93-14.07h0Z" fill="url(#linear-gradient-2)" stroke-width="0"/>
  </g>
  <g>
    <path d="M129.97,149.7s0-.01.01-.03c4.91-10.14,8.76-34.28,2.43-56.94-3.62-12.95-10.08-23.67-17.16-32.27l-38.56,74.11c-4.03,7.66-4.6,14.84-.83,20.96.14.22.29.43.44.65.13.19.25.38.38.57,0,0,0,0,0,.01,2.88,3.65,6.13,6.28,9.72,8.03,2.24,1.09,4.61,1.84,7.09,2.28.99.18,2,.3,3.03.38.51.04,1.03.07,1.56.08,15.19-.09,25.48-6.48,31.88-17.83Z" fill="#dbccab" opacity=".75" stroke-width="0"/>
    <path d="M115.56,63.65c7.15,9.17,12.24,19.1,15.16,29.55,6.21,22.25,2.41,45.91-2.31,55.69-6.37,11.27-16.29,16.8-30.31,16.9-.48-.01-.97-.04-1.44-.08-.98-.07-1.94-.2-2.86-.36-2.35-.42-4.58-1.13-6.63-2.13-3.41-1.66-6.47-4.2-9.08-7.49h0c-.07-.1-.14-.2-.2-.3l-.15-.22-.12-.17c-.09-.14-.19-.27-.27-.41-3.31-5.36-3.01-11.83.89-19.23l37.32-71.73M115.25,60.46l-38.56,74.11c-4.03,7.67-4.6,14.84-.83,20.96.14.22.29.43.44.65.13.19.25.38.38.57,0,0,0,0,0,.01,2.88,3.65,6.13,6.28,9.72,8.03,2.24,1.09,4.61,1.84,7.09,2.28.99.18,2,.3,3.03.38.51.04,1.03.07,1.56.08,15.19-.09,25.48-6.48,31.88-17.83,0,0,0-.01.01-.03,4.91-10.14,8.76-34.28,2.43-56.94-3.62-12.95-10.08-23.67-17.16-32.27h0Z" fill="url(#linear-gradient-3)" stroke-width="0"/>
  </g>
</svg>